HIERARCHY
ROOT Hips
{
    OFFSET 0.000000 0.000000 0.000000
    CHANNELS 6 Xposition Yposition Zposition Zrotation Xrotation Yrotation
    JOINT Spine
    {
        OFFSET -0.000000 8.505030 0.000000
        CHANNELS 3 Zrotation Xrotation Yrotation
        JOINT Spine1
        {
            OFFSET -0.000000 25.070629 0.000000
            CHANNELS 3 Zrotation Xrotation Yrotation
            JOINT Neck
            {
                OFFSET -0.000000 24.967667 2.269788
                CHANNELS 3 Zrotation Xrotation Yrotation
                JOINT Head
                {
                    OFFSET -0.000000 14.520781 -2.074397
                    CHANNELS 3 Zrotation Xrotation Yrotation
                    End Site
                    {
                        OFFSET -0.000000 25.929966 0.000000
                    }
                }
            }
            JOINT LeftShoulder
            {
                OFFSET 4.117346 22.983784 -0.389865
                CHANNELS 3 Zrotation Xrotation Yrotation
                JOINT LeftArm
                {
                    OFFSET 11.957758 0.000000 0.000000
                    CHANNELS 3 Zrotation Xrotation Yrotation
                    JOINT LeftForeArm
                    {
                        OFFSET 31.907600 0.000000 0.000000
                        CHANNELS 3 Zrotation Xrotation Yrotation
                        JOINT LeftHand
                        {
                            OFFSET 28.601147 0.000000 0.000000
                            CHANNELS 3 Zrotation Xrotation Yrotation
                            End Site
                            {
                                OFFSET 15.557981 0.000000 0.000000
                            }
                        }
                    }
                }
            }
            JOINT RightShoulder
            {
                OFFSET -4.061940 22.983784 -0.389865
                CHANNELS 3 Zrotation Xrotation Yrotation
                JOINT RightArm
                {
                    OFFSET -11.957758 0.000000 0.000000
                    CHANNELS 3 Zrotation Xrotation Yrotation
                    JOINT RightForeArm
                    {
                        OFFSET -31.907600 0.000000 0.000000
                        CHANNELS 3 Zrotation Xrotation Yrotation
                        JOINT RightHand
                        {
                            OFFSET -28.601147 0.000000 0.000000
                            CHANNELS 3 Zrotation Xrotation Yrotation
                            End Site
                            {
                                OFFSET -15.557981 0.000000 0.000000
                            }
                        }
                    }
                }
            }
        }
    }
    JOINT LeftUpLeg
    {
        OFFSET 10.371986 0.000000 0.000000
        CHANNELS 3 Zrotation Xrotation Yrotation
        JOINT LeftLeg
        {
            OFFSET -0.000000 -42.486427 0.000000
            CHANNELS 3 Zrotation Xrotation Yrotation
            JOINT LeftFoot
            {
                OFFSET -0.000000 -48.322342 0.000000
                CHANNELS 3 Zrotation Xrotation Yrotation
                JOINT LeftToeBase
                {
                    OFFSET -0.000000 -6.741791 15.557981
                    CHANNELS 3 Zrotation Xrotation Yrotation
                    End Site
                    {
                        OFFSET -0.000000 0.000000 4.148795
                    }
                }
            }
        }
    }
    JOINT RightUpLeg
    {
        OFFSET -10.371986 0.000000 0.000000
        CHANNELS 3 Zrotation Xrotation Yrotation
        JOINT RightLeg
        {
            OFFSET -0.000000 -42.486427 0.000000
            CHANNELS 3 Zrotation Xrotation Yrotation
            JOINT RightFoot
            {
                OFFSET -0.000000 -48.322342 0.000000
                CHANNELS 3 Zrotation Xrotation Yrotation
                JOINT RightToeBase
                {
                    OFFSET -0.000000 -6.741791 15.557981
                    CHANNELS 3 Zrotation Xrotation Yrotation
                    End Site
                    {
                        OFFSET -0.000000 0.000000 4.148795
                    }
                }
            }
        }
    }
}
MOTION
Frames:    13
Frame Time:    0.008333
16.718828    97.161987    44.958298    2.404735    1.333527    81.380836    -3.115324    -4.236284    0.187363    9.398438    -2.608521    0.517135    -9.763556    31.483303    1.580660    2.034590    -0.172596    0.463665    18.220695    -5.889291    -3.992293    2.469831    -12.546544    2.003629    10.888124    -17.485743    39.971767    17.810526    -21.802601    -3.896919    -10.862617    7.434377    -13.447194    72.950127    67.651543    0.072332    15.201872    -21.707541    29.715942    12.668015    -24.413622    10.034702    8.955767    -3.743991    2.959588    -1.287937    20.613810    7.730114    -15.733353    -6.648640    4.499935    0.000000    0.000000    0.000000    -8.944792    0.463226    3.365184    2.949941    22.947701    -2.275406    9.450491    -15.023676    -10.781009    0.000000    0.000000    0.000000    
16.781998    97.038689    44.927452    2.328165    1.202595    81.298447    -2.903533    -4.400259    0.280226    9.155187    -2.272091    0.573784    -9.506336    30.935461    1.456415    2.095085    -0.021907    0.433494    18.095808    -6.048809    -3.370300    1.152864    -12.739719    2.455383    10.983410    -17.783155    39.990879    17.382420    -22.166288    -4.275188    -11.056341    7.346169    -13.458252    73.491638    67.703438    -0.038390    15.189519    -21.820423    29.687355    12.830436    -24.481043    10.260725    9.131485    -4.010495    3.279218    -1.241618    21.143648    7.381165    -15.600661    -7.131976    4.482395    0.000000    0.000000    0.000000    -8.864779    0.269299    3.358891    2.991215    23.242258    -2.201294    9.386782    -15.284375    -10.736023    0.000000    0.000000    0.000000    
16.844599    96.912827    44.896305    2.285639    1.085487    81.207077    -2.731875    -4.501080    0.370483    9.014468    -2.028634    0.637786    -9.861760    30.677197    1.393041    2.801113    -0.155009    0.446016    17.643845    -5.937646    -2.763539    0.138592    -12.837636    2.721156    10.750108    -18.025524    39.926590    16.474092    -22.377766    -4.972314    -11.436707    7.253729    -13.425464    74.060661    67.608788    -0.161082    15.506004    -21.775391    29.845963    12.573652    -24.565636    10.175541    9.286225    -4.221714    3.645011    -1.171380    21.614862    7.004984    -15.487303    -7.582166    4.451048    0.000000    0.000000    0.000000    -8.803725    0.136589    3.350617    3.025651    23.484728    -2.128393    9.315116    -15.556757    -10.677253    0.000000    0.000000    0.000000    
16.905256    96.784088    44.873230    2.267448    0.949719    81.158966    -2.534729    -4.650536    0.451417    8.815473    -1.636690    0.680474    -10.001225    30.223690    1.326270    3.305951    -0.136308    0.481676    17.444429    -5.994191    -2.062983    -1.256814    -12.355519    2.623366    10.291621    -18.175188    39.940277    16.785471    -22.349464    -4.734611    -11.853633    7.170071    -13.412884    74.649368    67.614044    -0.172542    15.769141    -21.789896    29.892275    12.353872    -24.656706    10.300860    9.474246    -4.449967    3.965695    -1.122222    22.146852    6.705420    -15.362172    -8.015306    4.351227    0.000000    0.000000    0.000000    -8.678679    -0.011197    3.347033    3.005682    23.809551    -2.267347    9.304913    -15.802176    -10.460646    0.000000    0.000000    0.000000    
16.966026    96.636215    44.863716    2.234033    0.756204    81.116112    -2.297988    -4.826782    0.550628    8.668684    -1.277271    0.744330    -10.096990    29.866934    1.210436    3.690510    -0.096518    0.433603    17.049763    -5.817064    -1.593371    -2.324234    -11.967130    2.570960    9.573328    -18.397959    39.881741    18.178520    -22.304852    -4.279012    -12.202675    7.117807    -13.395106    75.206879    67.660919    -0.247579    16.127382    -21.920925    30.118303    11.807134    -24.958376    10.211560    9.737979    -4.698206    4.283469    -1.084470    22.740465    6.355352    -15.203052    -8.577515    4.290691    0.000000    0.000000    0.000000    -8.518744    -0.146574    3.478044    3.103134    24.108454    -2.445713    9.232628    -16.090279    -10.351749    0.000000    0.000000    0.000000    
17.015318    96.483116    44.842072    2.195708    0.566356    81.109070    -2.036203    -5.015995    0.650089    8.460460    -0.885567    0.804854    -10.106073    29.274387    0.985321    4.023049    0.310151    0.293723    16.855230    -5.811857    -1.124894    -3.536493    -11.347694    2.305926    8.870334    -18.582603    39.953869    19.123533    -22.219812    -3.850624    -12.486593    7.047876    -13.391264    75.503868    67.630196    -0.116936    16.621675    -21.845518    30.292892    11.163372    -25.096834    10.083705    9.988447    -4.946118    4.560587    -1.035170    23.277725    6.031260    -15.006544    -9.118175    4.198493    0.000000    0.000000    0.000000    -8.379821    -0.252558    3.585882    3.225224    24.347017    -2.635867    9.130887    -16.395800    -10.248817    0.000000    0.000000    0.000000    
17.059780    96.342049    44.805569    2.163462    0.477626    81.024689    -1.857875    -5.185545    0.812514    8.248649    -0.606395    0.940389    -10.163705    29.186508    0.874420    4.369641    0.128706    0.235440    16.642902    -5.705109    -0.917881    -4.540622    -10.956171    2.160556    8.142558    -18.792456    39.886631    20.591366    -22.068436    -2.948002    -12.685690    7.000632    -13.345988    75.971985    67.598755    -0.269909    17.163261    -21.960030    30.535019    10.448574    -25.447235    9.963629    10.117411    -5.170401    4.787807    -1.013895    23.783897    5.745624    -14.839069    -9.610785    4.234326    0.000000    0.000000    0.000000    -8.351980    -0.497310    3.367379    3.179411    24.786049    -2.414544    9.085225    -16.693647    -10.119355    0.000000    0.000000    0.000000    
17.115189    96.195190    44.814579    2.177934    0.248875    81.120071    -1.655313    -5.350023    0.896925    8.178866    -0.221463    0.990059    -10.092244    28.828926    0.730551    4.463198    0.269315    0.139906    16.401041    -5.630416    -0.786393    -5.396070    -10.641805    2.013512    7.557023    -19.223627    39.680439    22.012762    -22.115910    -1.849829    -12.912485    6.894702    -13.392432    76.340828    67.649734    -0.354801    17.626438    -22.035110    30.705538    10.185224    -25.680449    10.004411    10.415627    -5.349028    4.959525    -0.973741    24.269636    5.360537    -14.660574    -10.146925    4.199671    0.000000    0.000000    0.000000    -8.132896    -0.539660    3.229205    3.174128    25.060495    -2.573459    9.067208    -16.939949    -9.886269    0.000000    0.000000    0.000000    
17.135080    96.065727    44.805546    2.090606    0.098832    81.172783    -1.519811    -5.644205    1.030132    8.116136    0.228149    1.088867    -10.139768    28.553257    0.461536    4.792583    0.254410    -0.070456    16.273178    -5.620407    -0.661740    -6.201733    -10.614931    1.779424    7.324010    -19.959902    39.490784    24.433357    -22.612352    -0.985157    -13.104500    6.729054    -13.506729    76.724335    67.868530    -0.509076    18.055952    -22.226801    30.917469    10.183062    -25.987226    10.267668    10.614297    -5.649414    5.173925    -0.868864    24.734825    5.065346    -14.474286    -10.575632    4.090560    0.000000    0.000000    0.000000    -8.016985    -0.698141    3.365803    3.347784    25.281958    -2.828093    8.951947    -17.201136    -9.848448    0.000000    0.000000    0.000000    
17.172710    95.945198    44.788242    2.089991    -0.057750    81.245079    -1.362180    -5.875086    1.150059    8.070395    0.678144    1.172153    -10.053277    28.254999    0.307149    4.804014    0.291126    -0.189856    16.101950    -5.704014    -0.664928    -6.757337    -10.712871    1.595689    7.600450    -20.978533    39.459225    26.438560    -23.589983    -0.389851    -13.303143    6.600502    -13.601064    77.037140    68.104164    -0.620511    18.621468    -22.589817    31.235571    9.942646    -26.555294    10.245090    10.796867    -5.827655    5.231524    -0.827012    25.142612    4.865289    -14.329829    -10.990056    4.026757    0.000000    0.000000    0.000000    -7.923172    -0.794001    3.000254    3.309787    25.601543    -2.429190    8.889381    -17.459021    -9.926548    0.000000    0.000000    0.000000    
17.222630    95.830864    44.774384    2.165273    -0.215985    81.318695    -1.226287    -6.032207    1.242186    8.082129    1.117116    1.227914    -10.176076    28.007517    0.193189    4.965280    0.300515    -0.275102    15.932820    -5.561803    -0.484494    -7.089544    -11.586649    1.163582    8.241855    -21.620274    39.588219    26.514208    -24.452795    -0.448366    -13.566015    6.484855    -13.640246    77.362175    68.368378    -0.744739    19.034294    -22.880436    31.513378    10.191242    -26.954063    10.414647    10.959789    -5.907187    5.221774    -0.795599    25.514137    4.726067    -14.210706    -11.383903    3.962713    0.000000    0.000000    0.000000    -7.855210    -0.763105    2.879370    3.405829    25.814833    -2.463438    8.823255    -17.673002    -9.836684    0.000000    0.000000    0.000000    
17.239666    95.753754    44.763596    2.170703    -0.341108    81.398132    -1.132451    -6.203832    1.293346    8.158252    1.473308    1.249670    -10.268780    27.769339    0.090654    4.865320    0.344750    -0.383567    15.656915    -5.786099    -0.553554    -6.983391    -12.340796    1.108771    9.084598    -22.177410    39.810822    25.583967    -25.428734    -1.128349    -13.861526    6.374068    -13.614988    77.553589    68.541367    -0.753452    19.553295    -23.139929    31.773018    10.273977    -27.354952    10.670727    11.084678    -6.078918    5.202614    -0.740945    25.869892    4.562513    -14.146773    -11.661744    3.968514    0.000000    0.000000    0.000000    -7.794402    -0.813089    2.620443    3.425327    26.008295    -2.365780    8.837687    -17.803333    -9.740191    0.000000    0.000000    0.000000    
17.254892    95.694969    44.750797    2.197215    -0.452610    81.474297    -1.031391    -6.333417    1.324056    8.194928    1.770250    1.254285    -10.553592    27.651682    0.161864    5.143906    0.256333    -0.286216    15.440359    -5.829520    -0.553565    -6.474809    -14.025779    0.882367    9.776979    -22.325844    40.117195    24.316248    -26.044552    -2.306935    -14.097879    6.289827    -13.505796    77.659584    68.650871    -0.739302    19.914183    -23.225998    31.944662    10.416570    -27.521360    11.013012    11.180373    -6.209302    5.142565    -0.703954    26.169662    4.498144    -14.115705    -11.864964    3.960177    0.000000    0.000000    0.000000    -7.746324    -0.824128    2.302293    3.399229    26.161518    -2.225428    8.891953    -17.882135    -9.616291    0.000000    0.000000    0.000000    
